<svg class="icon" viewBox="0 0 1024 1024" xmlns="http://www.w3.org/2000/svg" width="512" height="512"><path d="M512 2.276c144.18 3.786 264.183 53.666 360.084 149.567 95.974 96.047 145.854 216.05 149.64 360.157-3.786 144.18-53.666 264.183-149.64 360.084-95.901 95.974-215.905 145.854-360.084 149.64-144.18-3.786-264.183-53.666-360.157-149.64C56.015 776.183 6.135 656.179 2.276 512c3.786-144.18 53.666-264.183 149.567-360.157C247.89 56.015 367.893 6.135 512 2.276zm-43.18 466.543H300.391a41.797 41.797 0 0 0-30.73 12.452 41.797 41.797 0 0 0-12.524 30.802c0 12.088 4.15 22.355 12.524 30.656a41.797 41.797 0 0 0 30.73 12.525h168.427V723.68c0 12.16 4.15 22.355 12.452 30.73a41.797 41.797 0 0 0 30.802 12.524 41.797 41.797 0 0 0 30.656-12.525 41.797 41.797 0 0 0 12.525-30.729V555.254H723.68a41.797 41.797 0 0 0 30.73-12.452 41.797 41.797 0 0 0 12.524-30.73 41.797 41.797 0 0 0-12.525-30.728 41.797 41.797 0 0 0-30.729-12.525H555.254V300.392a41.797 41.797 0 0 0-12.452-30.73A41.797 41.797 0 0 0 512 257.138a41.797 41.797 0 0 0-30.73 12.524 41.797 41.797 0 0 0-12.524 30.73v168.427z"/></svg>