<svg class="icon" viewBox="0 0 1024 1024" xmlns="http://www.w3.org/2000/svg" width="512" height="512"><path d="M851.899 342.05a169.95 169.95 0 0 0-145.024 81.576L600.374 317.125a169.95 169.95 0 1 0-176.748 0L317.125 423.626a169.95 169.95 0 1 0 0 176.748l106.501 106.501a169.95 169.95 0 1 0 176.748 0l106.501-106.501A169.95 169.95 0 1 0 851.9 342.05zM455.35 172.102a56.65 56.65 0 1 1 56.65 56.65 56.65 56.65 0 0 1-56.65-56.65zM172.101 568.65a56.65 56.65 0 1 1 56.65-56.65 56.65 56.65 0 0 1-56.65 56.65zM568.65 851.899a56.65 56.65 0 1 1-56.65-56.65 56.65 56.65 0 0 1 56.65 56.65zM512 634.93 389.07 512 512 389.07 634.93 512zm339.899-66.28a56.65 56.65 0 1 1 56.65-56.65 56.65 56.65 0 0 1-56.65 56.65z"/></svg>