<svg class="icon" viewBox="0 0 1024 1024" xmlns="http://www.w3.org/2000/svg" width="512" height="512"><path d="M763.374 323.47h-188.53v345.639c0 86.724-70.385 157.109-157.11 157.109-86.724 0-157.108-70.385-157.108-157.109S331.01 512 417.735 512c35.82 0 67.87 11.94 94.265 31.422v-345.64h251.374M951.905-53.592H72.095C2.967-53.592-53.592 2.967-53.592 72.095v879.81c0 69.128 56.559 125.687 125.687 125.687h879.81c69.128 0 125.687-56.559 125.687-125.687V72.095c0-69.128-56.559-125.687-125.687-125.687Z"/></svg>