<svg class="icon" viewBox="0 0 1024 1024" xmlns="http://www.w3.org/2000/svg" width="512" height="512"><path d="M718.807 98.654c19.238 0 36.872 10.42 46.491 26.986l207.074 359.64a53.087 53.087 0 0 1 0 53.44L765.298 898.626c-9.619 16.566-27.253 26.986-46.491 26.986H305.193c-19.238 0-36.872-10.42-46.491-26.986L51.628 538.72a53.087 53.087 0 0 1 0-53.438l207.074-359.908c9.619-16.566 27.253-26.986 46.491-26.986h413.614zM512 712.929c110.885 0 200.929-90.311 200.929-200.929S622.618 310.804 512 310.804 310.804 401.115 310.804 512 401.115 712.929 512 712.929z"/><path d="M305.193 884.733c-4.542 0-8.817-2.405-11.222-6.413L86.897 518.413c-2.404-4.008-2.404-8.818 0-12.826L293.971 145.68a13.092 13.092 0 0 1 11.222-6.413h413.614a13.092 13.092 0 0 1 11.222 6.413l207.074 359.907a12.29 12.29 0 0 1 0 12.826L730.029 878.32a13.092 13.092 0 0 1-11.222 6.413H305.193M512 270.191c-133.329 0-241.809 108.48-241.809 241.809S378.671 753.809 512 753.809 753.809 645.329 753.809 512 645.329 270.191 512 270.191M305.193 966.227h413.614c33.666 0 64.927-18.17 81.76-47.293l207.074-359.908a93.891 93.891 0 0 0 0-94.052L800.568 105.066c-16.834-29.124-48.095-47.293-81.761-47.293H305.193c-33.666 0-64.927 18.17-81.76 47.293L16.358 464.974a93.895 93.895 0 0 0 0 94.052l207.073 359.908a94.72 94.72 0 0 0 81.761 47.293zM512 351.685c88.44 0 160.315 71.874 160.315 160.315S600.441 672.315 512 672.315 351.685 600.441 351.685 512 423.559 351.685 512 351.685z"/></svg>