<svg class="icon" viewBox="0 0 1024 1024" xmlns="http://www.w3.org/2000/svg" width="512" height="512"><path d="M1019.323 20.153a42.75 42.75 0 0 1 5.301 28.514L879.7 931.47a42.75 42.75 0 0 1-57.97 32.747L554.152 857.64l-110.724 149.97a42.75 42.75 0 0 1-77.208-25.352V810.657a85.501 85.501 0 0 1 19.195-54.037l374.497-459.57a12.825 12.825 0 0 0-18.426-17.742l-462.05 405.79a85.501 85.501 0 0 1-88.836 14.877L25.54 632.301a42.75 42.75 0 0 1-5.387-76.439L960.84 4.848a42.75 42.75 0 0 1 58.483 15.305z"/></svg>