<svg class="icon" viewBox="0 0 1024 1024" xmlns="http://www.w3.org/2000/svg" width="512" height="512"><path d="M541.458 502.308v392.645a147.29 147.29 0 0 1-147.29 147.29 29.458 29.458 0 0 1 0-58.916 88.374 88.374 0 0 0 88.374-88.374V502.308a132.56 132.56 0 0 0-223.586 27.985h-.088a12.844 12.844 0 0 1-24.067-.206h-.089a132.56 132.56 0 0 0-227.12-23.065 11.282 11.282 0 0 1-9.721 5.832c-6.334 0-11.46-5.538-11.46-12.372 0-1.178.148-2.298.442-3.358 34.584-248.39 241.26-441.722 495.69-455.656V11.215a29.458 29.458 0 0 1 58.915 0v30.253c254.782 13.963 461.665 207.767 495.836 456.657h-.118l.03.972a11.93 11.93 0 0 1-22.359 5.863 132.56 132.56 0 0 0-224.676 23.271v-.03a13.256 13.256 0 0 1-26.365-.794h-.117a132.56 132.56 0 0 0-222.231-25.099z" fill="#2A2A37"/></svg>