<svg xmlns="http://www.w3.org/2000/svg" width="512" height="512" viewBox="0 0 1024 1024"><path fill="#000" stroke="#000" stroke-width="4" d="M457.143 96.914c-5.486-14.628-18.286-23.771-34.743-23.771s-29.257 9.143-34.743 23.771L76.8 901.486c-3.657 10.971-3.657 23.771 3.657 34.743 7.314 10.971 18.286 16.457 29.257 16.457H731.43c12.8 0 23.771-5.486 29.257-16.457 5.485-10.972 9.143-21.943 3.657-34.743l-307.2-804.572zM550.4 73.143v73.143c181.029 0 329.143 148.114 329.143 329.143 0 84.114-32.914 166.4-91.429 226.742l53.029 51.2C912.457 678.4 952.686 579.657 952.686 475.43c0-221.258-179.2-402.286-402.286-402.286z"/></svg>