<svg xmlns="http://www.w3.org/2000/svg" width="512" height="512" viewBox="0 0 1024 1024"><path fill="#000" stroke="#000" stroke-width="4" d="M917.943 546.743c-18.286-170.057-118.857-312.686-252.343-371.2v226.743h-73.143V153.6c-20.114-3.657-42.057-7.314-64-7.314-27.428 0-54.857 3.657-82.286 10.971v245.029H373.03v-217.6C250.514 246.857 159.086 378.514 138.97 537.6 58.514 570.514 7.314 618.057 7.314 676.571c0 71.315 73.143 122.515 181.029 157.258 93.257 29.257 212.114 43.885 330.971 43.885 128 0 256-18.285 352.915-51.2 95.085-32.914 159.085-84.114 159.085-149.943-1.828-54.857-45.714-98.742-113.371-129.828z"/></svg>