<svg xmlns="http://www.w3.org/2000/svg" width="512" height="512" viewBox="0 0 1024 1024"><path fill="#000" stroke="#000" stroke-width="4" d="M919.771 292.571c20.115 0 36.572-16.457 36.572-36.571V109.714c0-20.114-16.457-36.571-36.572-36.571H773.486c-20.115 0-36.572 16.457-36.572 36.571v36.572H298.057v-36.572c0-20.114-16.457-36.571-36.571-36.571H115.2c-20.114 0-36.571 16.457-36.571 36.571V256c0 20.114 16.457 36.571 36.571 36.571h36.571V731.43H115.2c-20.114 0-36.571 16.457-36.571 36.571v146.286c0 20.114 16.457 36.571 36.571 36.571h146.286c20.114 0 36.571-16.457 36.571-36.571v-36.572h438.857v36.572c0 20.114 16.457 36.571 36.572 36.571H919.77c20.115 0 36.572-16.457 36.572-36.571V768c0-20.114-16.457-36.571-36.572-36.571H883.2V292.57h36.571zM224.914 877.714h-73.143v-73.143h73.143v73.143zm0-658.285h-73.143v-73.143h73.143v73.143zM883.2 841.143v36.571h-73.143v-73.143H883.2v36.572zm-73.143-621.714v-73.143H883.2v73.143h-73.143z"/></svg>