<svg xmlns="http://www.w3.org/2000/svg" width="512" height="512" viewBox="0 0 1024 1024"><path fill="#000" stroke="#000" stroke-width="4" d="M338.283 810.667a64 64 0 1 1 0 128 64 64 0 0 1 0-128zm451.05 0a64 64 0 1 1 0 128 64 64 0 0 1 0-128zm-489.642-82.774-.256-.085a31.872 31.872 0 0 1-17.963-17.237 29.163 29.163 0 0 1-1.579-4.587l-.213-.853a32.213 32.213 0 0 1-.64-3.798l.32 2.198-.064-.384L189.226 160h-82.56V96h109.718a32 32 0 0 1 30.955 23.915l.618 2.858 22.315 134.742H896a32 32 0 0 1 31.872 34.858l-.363 2.774-73.173 408.405a32 32 0 0 1-31.488 26.347h-512c-3.904 0-7.68-.704-11.157-2.006z"/></svg>
