<svg xmlns="http://www.w3.org/2000/svg" width="512" height="512" viewBox="0 0 1024 1024"><path fill="#000" stroke="#000" stroke-width="4" d="M149.402 256a26.726 26.726 0 0 1-19.354-45.21A539.904 539.904 0 0 1 379.392 61.747a26.726 26.726 0 1 1 14.08 51.61A486.4 486.4 0 0 0 168.96 247.706 26.675 26.675 0 0 1 149.402 256zm760.832 18.227a26.624 26.624 0 0 1-20.48-9.267 486.4 486.4 0 0 0-226.816-147.712 26.726 26.726 0 1 1 15.36-51.2 539.34 539.34 0 0 1 251.801 163.84 26.726 26.726 0 0 1-20.224 44.237zM521.574 153.6a413.44 413.44 0 1 0 413.44 413.44 413.44 413.44 0 0 0-413.44-413.44zm150.784 402.688L541.491 735.795a26.778 26.778 0 0 1-43.264-31.488l93.184-128-198.4 29.799a26.726 26.726 0 0 1-25.6-42.343L500.89 383.027a26.778 26.778 0 1 1 43.059 31.693L448.87 543.693l197.888-29.747a26.778 26.778 0 0 1 25.6 42.24z"/></svg>