<svg xmlns="http://www.w3.org/2000/svg" width="512" height="512" viewBox="0 0 1024 1024"><path fill="#000" stroke="#000" stroke-width="4" d="M576 74.667a32 32 0 0 1 32 32v66.624l4.672 1.322a348.882 348.882 0 0 1 66.837 27.734l4.075 2.282 47.147-47.146a32 32 0 0 1 42.816-2.176l2.432 2.197 90.517 90.517a32 32 0 0 1 0 45.227l-47.147 47.147 2.326 4.117a351.055 351.055 0 0 1 27.733 66.837l1.28 4.651h66.645a32 32 0 0 1 31.851 28.928l.15 3.072v128a32 32 0 0 1-32 32h-66.646l-1.301 4.672a349.995 349.995 0 0 1-27.734 66.837l-2.304 4.075 47.147 47.147a32 32 0 0 1 2.197 42.816l-2.197 2.432-90.517 90.517a32 32 0 0 1-45.227 0l-47.168-47.147-4.075 2.304a348.882 348.882 0 0 1-66.837 27.734L608 850.688v66.645a32 32 0 0 1-28.928 31.851l-3.072.15H448a32 32 0 0 1-32-32v-66.646l-4.65-1.28a349.995 349.995 0 0 1-66.838-27.733l-4.117-2.326-47.147 47.147a32 32 0 0 1-42.795 2.197l-2.432-2.197-90.517-90.517a32 32 0 0 1 0-45.227l47.125-47.168-2.282-4.075a349.995 349.995 0 0 1-27.734-66.837L173.291 608h-66.624a32 32 0 0 1-31.851-28.928l-.15-3.072V448a32 32 0 0 1 32-32h66.625l1.322-4.65a348.317 348.317 0 0 1 27.734-66.838l2.282-4.117-47.146-47.147a32 32 0 0 1-2.176-42.795l2.197-2.432 90.517-90.517a32 32 0 0 1 45.227 0l47.147 47.125 4.117-2.304a351.055 351.055 0 0 1 66.837-27.733l4.651-1.301v-66.624a32 32 0 0 1 28.928-31.851l3.072-.15zM512 352a160 160 0 1 0 0 320 160 160 0 0 0 0-320zm0 64a96 96 0 1 1 0 192 96 96 0 0 1 0-192z"/></svg>