<svg xmlns="http://www.w3.org/2000/svg" width="512" height="512" viewBox="0 0 1024 1024"><path fill="#000" stroke="#000" stroke-width="4" d="M513.992 65.104c-247.549 0-448.256 200.708-448.256 448.256 0 247.549 200.707 448.256 448.256 448.256 247.548 0 448.255-200.707 448.255-448.256.001-247.547-200.707-448.256-448.255-448.256zM734.34 466.52 546.567 702.877c-11.266 12.748-18.752 20.383-32.537 20.383-13.786 0-21.827-8.968-32.538-20.383L293.681 466.52c-2.594-5.263-3.929-10.97-3.929-16.676a37.451 37.451 0 0 1 5.448-19.455c6.596-10.932 18.38-18.196 30.98-18.196h375.66c12.674 0 24.421 7.264 31.018 18.196 6.633 10.931 7.226 24.642 1.482 36.13z"/></svg>