<svg xmlns="http://www.w3.org/2000/svg" width="512" height="512" viewBox="0 0 1024 1024"><path fill="#000" stroke="#000" stroke-width="4" d="M948.634 410.368a22.63 22.63 0 0 0 18.278-22.016V238.438a92.16 92.16 0 0 0-92.16-92.16H149.248a92.16 92.16 0 0 0-92.16 92.16V387.84a22.682 22.682 0 0 0 18.688 22.016 109.722 109.722 0 0 1 0 215.398 22.682 22.682 0 0 0-18.688 22.016v149.402a92.16 92.16 0 0 0 92.16 92.16h725.504a92.16 92.16 0 0 0 92.16-92.16V646.758a22.63 22.63 0 0 0-18.278-22.016 109.67 109.67 0 0 1 0-214.374zm-619.52 15.36h302.643l-57.088-73.984a25.6 25.6 0 1 1 40.499-31.334l88.883 115.046a25.6 25.6 0 0 1-20.48 41.267h-354.56a25.6 25.6 0 0 1 0-51.2zm354.764 189.44H381.133l56.985 73.78a25.6 25.6 0 0 1-4.608 35.84 25.6 25.6 0 0 1-35.84-4.609l-88.934-114.944a25.6 25.6 0 0 1 20.48-41.267h354.765a25.6 25.6 0 0 1 0 51.2z"/></svg>