<svg xmlns="http://www.w3.org/2000/svg" width="512" height="512" viewBox="0 0 1024 1024"><path fill="#000" stroke="#000" stroke-width="4" d="M864.914 559.543c-82.285-175.543-12.8-314.514-10.971-320 5.486-9.143 5.486-21.943 1.828-31.086-3.657-9.143-12.8-18.286-23.771-20.114-5.486-1.829-51.2-14.629-102.4 20.114-49.371 32.914-84.114 95.086-102.4 188.343-42.057-58.514-40.229-224.914-29.257-318.171 1.828-12.8-3.657-27.429-16.457-34.743-10.972-7.315-25.6-9.143-38.4-1.829-9.143 5.486-221.257 122.514-177.372 457.143-5.485-3.657-9.143-7.314-12.8-10.971-49.371-51.2-54.857-171.886-51.2-213.943 0-14.629-7.314-27.429-18.285-34.743-10.972-7.314-27.429-5.486-38.4 3.657-16.458 10.971-93.258 84.114-93.258 378.514 0 202.972 164.572 367.543 365.715 367.543 171.885 0 318.171-117.028 356.571-283.428 12.8-58.515 9.143-106.058-9.143-146.286z"/></svg>