<svg xmlns="http://www.w3.org/2000/svg" width="512" height="512" viewBox="0 0 1024 1024"><path fill="#000" stroke="#000" stroke-width="4" d="M195.942 81.562H367.36q114.637 0 114.637 114.636v171.418q0 114.637-114.637 114.637H195.942q-114.636 0-114.636-114.637V196.198q0-114.636 114.636-114.636Zm0 456.498H367.36q114.637 0 114.637 114.638v171.417q0 114.637-114.637 114.637H195.942q-114.636 0-114.636-114.637V652.698q0-114.637 114.636-114.637Zm461.312 0h171.418q114.637 0 114.637 114.638v171.417q0 114.637-114.637 114.637H657.254q-114.636 0-114.636-114.637V652.698q0-114.637 114.636-114.637Zm0-456.498h171.418q114.637 0 114.637 114.636v171.418q0 114.637-114.637 114.637H657.254q-114.636 0-114.636-114.637V196.198q0-114.636 114.636-114.636Z"/></svg>