<svg xmlns="http://www.w3.org/2000/svg" width="512" height="512" viewBox="0 0 1024 1024"><path fill="#000" stroke="#000" stroke-width="4" d="M890.88 218.829h-66.15c-15.924-56.32-64.461-137.267-166.708-137.267-54.374 0-97.28 15.974-128 47.41a142.029 142.029 0 0 0-13.772 16.64 144.64 144.64 0 0 0-15.975-19.148C471.04 96.666 430.08 81.562 379.75 81.562c-108.39 0-159.18 77.158-177.203 137.267H139.06a90.01 90.01 0 0 0-89.958 90.01V412.21a90.01 90.01 0 0 0 89.958 90.01h20.48v333.875a90.01 90.01 0 0 0 90.01 89.958h531.046a90.01 90.01 0 0 0 89.805-89.958V502.221h20.48a90.01 90.01 0 0 0 90.01-90.01V308.838a90.01 90.01 0 0 0-90.01-90.01zM573.44 170.24c18.637-18.995 47.002-28.672 84.224-28.672 61.747 0 90.573 45.414 103.22 77.26h-211.56a97.587 97.587 0 0 1 24.474-48.588zm-194.048-28.672c45.056 0 75.418 15.36 92.877 46.9a114.688 114.688 0 0 1 11.366 30.36H266.24c14.182-34.098 45.568-77.26 113.51-77.26zm417.229 382.106H545.024v339.763a24.986 24.986 0 0 1-49.971 0V523.674H243.098a25.088 25.088 0 0 1 0-50.023h251.955V281.958a24.986 24.986 0 0 1 49.971 0v191.693h251.955a25.088 25.088 0 0 1 0 50.023z"/></svg>