<svg xmlns="http://www.w3.org/2000/svg" width="512" height="512" viewBox="0 0 1024 1024"><path fill="#000" stroke="#000" stroke-width="4" d="M941.361 431.158v-1.797c-1.796-3.593-1.796-5.39-3.593-7.186v-1.796c-1.796-3.593-3.593-5.39-7.186-7.186L535.354 89.825c-12.575-10.78-32.336-10.78-44.912 0L95.214 413.193l-7.186 7.186v1.796c-1.796 1.797-3.593 5.39-3.593 7.186v1.797c-3.593 3.593-3.593 5.39-3.593 8.982v467.088c0 19.761 16.169 35.93 35.93 35.93h790.456c19.761 0 35.93-16.169 35.93-35.93V440.14c0-3.593 0-5.39-1.797-8.982zM655.72 673.684H368.281v-71.86h287.438v71.86z"/></svg>