<svg xmlns="http://www.w3.org/2000/svg" width="512" height="512" viewBox="0 0 1024 1024"><path fill="#000" stroke="#000" stroke-width="4" d="M365.714 438.857h292.572V329.143q0-60.562-42.862-103.424T512 182.857 408.576 225.72t-42.862 103.424v109.714zm475.429 54.857v329.143q0 22.82-16.018 38.839t-38.84 16.018h-548.57q-22.821 0-38.84-16.018t-16.018-38.839V493.714q0-22.82 16.018-38.839t38.84-16.018H256V329.143q0-105.18 75.41-180.59T512 73.143t180.59 75.41T768 329.143v109.714h18.286q22.82 0 38.839 16.018t16.018 38.84z"/></svg>