<svg xmlns="http://www.w3.org/2000/svg" width="512" height="512" viewBox="0 0 1024 1024"><path fill="#000" stroke="#000" stroke-width="4" d="M875.886 157.257c0-20.114-10.972-38.4-29.257-49.371-12.8-7.315-29.258-9.143-43.886-5.486-5.486 1.829-9.143 3.657-12.8 5.486C736.914 89.6 680.229 85.943 625.37 100.57c-71.314 20.115-131.657 65.829-168.228 128l-7.314 10.972C448 241.37 448 243.2 446.17 245.029c-9.142 16.457-3.657 38.4 12.8 49.371 16.458 10.971 38.4 5.486 49.372-10.971l1.828-3.658c3.658-5.485 9.143-9.142 14.629-9.142 7.314-1.829 12.8 0 18.286 1.828 5.485 3.657 10.971 23.772 3.657 42.057-5.486 16.457 1.828 34.743 16.457 43.886s34.743 5.486 45.714-7.314c12.8-14.629 32.915-20.115 38.4-16.457 3.657 1.828 9.143 18.285 5.486 34.742l-192 332.8-104.229-181.028v-1.829c-3.657-12.8-1.828-29.257 1.829-32.914 3.657-1.829 20.114 3.657 29.257 14.629 10.972 12.8 31.086 16.457 45.714 7.314s21.943-27.429 16.458-43.886c-3.658-12.8-1.829-29.257 1.828-32.914 3.657-1.829 18.286 3.657 27.429 14.628 12.8 14.629 32.914 16.458 49.371 5.486 14.629-10.971 20.114-31.086 10.972-47.543l-9.143-14.628c-32.915-58.515-87.772-100.572-153.6-117.029-49.372-12.8-100.572-10.971-148.115 5.486-3.657-1.829-7.314-3.657-10.971-3.657-14.629-3.657-29.257-1.829-42.057 5.485-16.457 9.143-27.429 27.429-27.429 45.715-89.6 78.628-115.2 210.285-54.857 316.343l5.486 10.971c1.828 1.829 1.828 3.657 3.657 5.486 7.314 10.971 18.286 18.285 31.086 18.285 5.485 0 12.8-1.828 18.285-3.657 18.286-9.143 23.772-31.085 14.629-49.371l-1.829-3.657c-3.657-9.143 0-20.115 7.315-23.772 3.657-1.828 20.114 3.657 29.257 14.629 10.971 12.8 31.086 16.457 45.714 7.314s21.943-27.428 16.457-43.886c-3.657-12.8-1.828-29.257 1.829-32.914 3.657-1.828 14.628 1.829 25.6 9.143l95.086 166.4C294.4 742.4 213.943 797.257 151.77 872.229c-9.142 10.971-10.971 25.6-5.485 38.4 5.485 12.8 18.285 20.114 32.914 20.114h674.743c14.628 0 27.428-7.314 32.914-20.114 5.486-12.8 3.657-27.429-5.486-38.4-84.114-102.4-204.8-164.572-334.628-173.715l164.571-285.257s1.829 0 1.829-1.828c12.8-14.629 32.914-20.115 38.4-16.458 5.486 3.658 10.971 23.772 3.657 42.058-5.486 16.457 1.829 34.742 16.457 43.885s34.743 5.486 45.714-7.314c12.8-14.629 32.915-20.114 38.4-16.457 5.486 3.657 9.143 23.771 3.658 40.228-5.486 18.286 1.828 36.572 20.114 45.715 5.486 1.828 9.143 3.657 14.628 3.657 12.8 0 25.6-7.314 31.086-18.286L934.4 512c69.486-120.686 42.057-268.8-58.514-354.743z"/></svg>