<svg xmlns="http://www.w3.org/2000/svg" width="512" height="512" viewBox="0 0 1024 1024"><path fill="#000" stroke="#000" stroke-width="4" d="M512 328c172.203 0 330.923 57.813 457.77 155.093a465.45 465.45 0 0 1 .065 56.896 314.71 314.71 0 0 0-78.571-9.92c-173.29 0-313.792 140.48-313.792 313.792 0 41.814 8.192 81.771 23.061 118.272-28.629 5.59-58.24 8.534-88.533 8.534s-59.904-2.944-88.533-8.534a312.619 312.619 0 0 0 23.04-118.272c0-173.312-140.48-313.792-313.771-313.792-27.136 0-53.461 3.456-78.57 9.92a464.96 464.96 0 0 1 .063-56.874A749.525 749.525 0 0 1 512 328zm379.264 260.736c24.704 0 48.597 3.52 71.19 10.07-31.318 163.52-149.462 296.191-304.598 348.18a254.315 254.315 0 0 1-21.717-103.125c0-140.906 114.218-255.125 255.125-255.125zm-758.528 0c140.907 0 255.125 114.219 255.125 255.125 0 36.694-7.765 71.574-21.717 103.126-155.136-51.99-273.28-184.662-304.597-348.16 22.613-6.571 46.485-10.091 71.189-10.091zM512 426.666a85.333 85.333 0 1 0 0 170.667 85.333 85.333 0 0 0 0-170.666zm0-373.333c215.552 0 396.373 148.694 445.504 349.12A807.595 807.595 0 0 0 512 269.333a807.765 807.765 0 0 0-445.525 133.12C115.605 202.027 296.448 53.333 512 53.333z"/></svg>