<svg xmlns="http://www.w3.org/2000/svg" width="512" height="512" viewBox="0 0 1024 1024"><path fill="#000" stroke="#000" stroke-width="4" d="M916.114 73.143H111.543c-20.114 0-36.572 16.457-36.572 36.571v804.572c0 20.114 16.458 36.571 36.572 36.571h804.571c20.115 0 36.572-16.457 36.572-36.571V109.714c0-20.114-16.457-36.571-36.572-36.571zm-164.571 640c0 20.114-16.457 36.571-36.572 36.571H312.686c-20.115 0-36.572-16.457-36.572-36.571V310.857c0-20.114 16.457-36.571 36.572-36.571H422.4v73.143h-73.143V676.57H678.4V347.43h-128v98.742c27.429 14.629 42.057 47.543 34.743 82.286-5.486 25.6-27.429 47.543-53.029 53.029-47.543 10.971-91.428-25.6-91.428-71.315 0-27.428 14.628-51.2 36.571-62.171V310.857c0-20.114 16.457-36.571 36.572-36.571H714.97c20.115 0 36.572 16.457 36.572 36.571v402.286z"/></svg>