<svg xmlns="http://www.w3.org/2000/svg" width="512" height="512" viewBox="0 0 1024 1024"><path fill="#000" stroke="#000" stroke-width="4" d="M932.571 310.857c-51.2 0-91.428 40.229-91.428 91.429 0 12.8 1.828 23.771 7.314 34.743l-153.6 64L588.8 288.914c9.143-14.628 16.457-32.914 16.457-51.2 0-51.2-40.228-91.428-91.428-91.428S422.4 186.514 422.4 237.714c0 18.286 5.486 36.572 16.457 51.2L332.8 501.03l-153.6-64c3.657-10.972 7.314-21.943 7.314-34.743 0-51.2-40.228-91.429-91.428-91.429S3.657 351.086 3.657 402.286c0 29.257 14.629 56.685 36.572 73.143v5.485L95.086 883.2c1.828 18.286 18.285 31.086 36.571 31.086h768c18.286 0 32.914-12.8 36.572-31.086l54.857-402.286v-5.485c21.943-16.458 36.571-42.058 36.571-73.143-3.657-51.2-43.886-91.429-95.086-91.429zM91.43 420.571c-10.972 0-18.286-7.314-18.286-18.285S80.457 384 91.429 384s18.285 7.314 18.285 18.286S102.4 420.57 91.43 420.57zM512 219.43c10.971 0 18.286 7.314 18.286 18.285 0 9.143-7.315 16.457-14.629 18.286h-5.486c-9.142-1.829-14.628-9.143-14.628-18.286-1.829-10.971 7.314-18.285 16.457-18.285zm36.571 493.714H438.857L512 548.57l73.143 164.572H548.57zm384-292.572c-10.971 0-18.285-7.314-18.285-18.285S921.6 384 932.57 384s18.286 7.314 18.286 18.286-7.314 18.285-18.286 18.285z"/></svg>