<svg xmlns="http://www.w3.org/2000/svg" width="512" height="512" viewBox="0 0 1024 1024"><path fill="#000" stroke="#000" stroke-width="4" d="M908.698 576.666V209.1a41.318 41.318 0 0 0-36.506-40.141c-67.942-9.216-217.549-37.888-336.384-120.32a43.98 43.98 0 0 0-49.408-.358 731.443 731.443 0 0 1-322.253 119.142 41.42 41.42 0 0 0-37.683 40.346v366.643S93.44 824.32 522.24 969.267c398.131-140.544 386.458-348.006 386.458-392.601zm-193.69-180.941L525.926 633.088a45.26 45.26 0 0 1-33.382 17.152h-1.843a44.902 44.902 0 0 1-32.768-14.131L327.322 497.306a25.6 25.6 0 0 1 37.273-35.124L490.291 595.61 674.97 363.776a25.6 25.6 0 0 1 40.038 31.949z"/></svg>