<svg xmlns="http://www.w3.org/2000/svg" width="512" height="512" viewBox="0 0 1024 1024"><path fill="#000" stroke="#000" stroke-width="4" d="M972.8 405.943c-3.657-10.972-10.971-18.286-21.943-23.772l-243.2-89.6-160.914-204.8c-14.629-18.285-43.886-18.285-58.514 0l-160.915 204.8-243.2 89.6c-10.971 3.658-18.285 12.8-21.943 23.772-3.657 10.971-1.828 21.943 3.658 31.086l144.457 217.6 9.143 261.485c0 10.972 5.485 21.943 14.628 27.429 9.143 7.314 20.114 9.143 31.086 5.486l250.514-71.315 250.514 71.315c3.658 1.828 7.315 1.828 9.143 1.828 7.315 0 14.629-1.828 21.943-7.314 9.143-7.314 14.629-16.457 14.629-27.429l9.143-261.485 144.457-217.6c9.143-9.143 10.971-20.115 7.314-31.086z"/></svg>