<svg xmlns="http://www.w3.org/2000/svg" width="512" height="512" viewBox="0 0 1024 1024"><path fill="#000" stroke="#000" stroke-width="4" d="M956.992 404q-2.016-4.992-5.504-9.504t-8.512-7.488-11.008-4L660.96 340.992l-120-259.008q-8.992-18.016-28.992-18.016-20.992 0-28.992 18.016L360.96 340 89.952 380.992Q70.944 384 64.448 402.496t7.488 32.512l196 202.016-47.008 284.992q-3.008 20 13.504 31.488t33.504 1.504l242.016-132.992 242.016 134.016q7.008 4 15.008 4h.992q12.992 0 22.496-9.504t9.504-22.496q0-6.016-2.016-11.008L752.96 638.016l196.992-200.992q6.016-7.008 8-15.488t-.992-17.504z"/></svg>