<svg xmlns="http://www.w3.org/2000/svg" width="512" height="512" viewBox="0 0 1024 1024"><path fill="#000" stroke="#000" stroke-width="4" d="M974.452 788.216c0-.793-.43-1.619-.496-2.412 1.387-9.017-1.784-18.3-9.084-24.972L736.553 554.479c88.262-16.945 145.408-43.437 145.408-73.397 0-.66-.33-1.288-.396-1.95 1.09-7.233-1.42-14.6-7.3-19.984L620.28 229.608c59.656-9.15 99.592-25.535 99.592-44.33 0-.892-.363-1.817-.562-2.709.033-3.501-.891-6.97-3.732-9.546l-182.8-165.26c-11.463-10.34-30.093-10.34-41.555 0l-182.8 165.26c-2.842 2.576-3.766 6.045-3.733 9.546-.199.925-.562 1.817-.562 2.709 0 18.762 39.936 35.146 99.592 44.33l-254.018 229.54c-5.88 5.385-8.39 12.784-7.3 19.985-.033.66-.363 1.321-.363 1.949 0 29.927 57.146 56.452 145.408 73.397L59.127 760.832c-7.332 6.673-10.47 15.922-9.083 24.972-.066.793-.496 1.619-.496 2.412 0 52.356 139.363 96.553 330.323 110.757v58.962c0 36.468 29.597 66.065 66.064 66.065h132.13c36.467 0 66.064-29.597 66.064-66.065v-58.962c190.96-14.204 330.323-58.401 330.323-110.757z"/></svg>