<svg xmlns="http://www.w3.org/2000/svg" width="512" height="512" viewBox="0 0 1024 1024"><path fill="#000" stroke="#000" stroke-width="4" d="M1024 512c0 282.77-229.23 512-512 512S0 794.77 0 512 229.23 0 512 0s512 229.23 512 512zm-928 0c0 229.75 186.25 416 416 416s416-186.25 416-416S741.75 96 512 96 96 282.25 96 512zm461.254-301.256 256 256.002c24.994 24.992 24.994 65.514 0 90.508s-65.516 24.994-90.51 0L576 410.51V768c0 35.346-28.654 64-64 64-35.346 0-64-28.654-64-64V410.51L301.256 557.256c-24.994 24.994-65.518 24.994-90.512 0C198.248 544.758 192 528.378 192 512s6.248-32.758 18.744-45.254l256-256.002c24.994-24.992 65.518-24.992 90.51 0z"/></svg>