<svg xmlns="http://www.w3.org/2000/svg" width="512" height="512" viewBox="0 0 1024 1024"><path fill="#000" stroke="#000" stroke-width="4" d="M725.333 110.507a32 32 0 0 1 27.712 16L966.38 496a32 32 0 0 1 0 32L753.045 897.493a32 32 0 0 1-27.712 16H298.667a32 32 0 0 1-27.712-16L57.62 528a32 32 0 0 1 0-32l213.334-369.493a32 32 0 0 1 27.712-16zM385.685 306.453l89.856 89.899-79.189 79.19-89.877-89.878c-23.104 54.293-12.608 119.381 31.53 163.52 44.139 44.16 109.227 54.635 163.52 31.552l97.216 97.195a56 56 0 1 0 79.19-79.19l-97.195-97.237c23.083-54.293 12.587-119.36-31.552-163.499-44.117-44.138-109.205-54.613-163.499-31.552z"/></svg>