<svg xmlns="http://www.w3.org/2000/svg" width="512" height="512" viewBox="0 0 1024 1024"><path fill="#000" stroke="#000" stroke-width="4" d="M801.235 619.79c30.54-75.453 28.744-158.092-3.593-233.544-66.47-154.499-246.12-226.358-400.617-159.888-75.453 32.337-132.94 91.62-163.481 167.074-30.54 75.452-28.744 158.09 3.593 233.543s91.62 132.94 167.074 163.481c35.93 14.372 73.656 21.558 113.178 21.558 41.32 0 82.64-8.982 120.365-25.15 75.453-32.338 134.737-91.622 163.481-167.075zM132.94 671.887l-66.47 28.744c52.098 120.364 149.109 213.782 271.27 260.49l25.151-66.47c-104.196-41.319-185.038-118.568-229.95-222.764zm761.713-7.186c-41.32 100.603-118.569 181.445-219.172 224.561l28.744 66.47c116.771-50.301 208.393-143.719 256.898-262.287l-66.47-28.744zm-3.593-319.776 66.47-28.744C905.432 197.614 812.014 105.993 691.65 57.488l-26.948 66.47c102.4 41.32 183.242 118.568 226.358 220.968zM348.52 129.347l-28.745-66.47C206.596 111.382 116.772 201.207 68.267 312.59l66.47 28.744c41.32-95.214 116.772-170.666 213.782-211.986z"/></svg>