<svg t="1697171488945" class="icon" viewBox="0 0 1086 1024" version="1.1" xmlns="http://www.w3.org/2000/svg" p-id="8173" width="512" height="512"><path d="M321.214785 391.8002l455.224775-2.045954-218.917083 550.361638zM373.386613 192.31968l346.789211 3.068931 61.378621 134.00999-450.10989-3.068931zM274.157842 322.237762l-274.157842-114.573427 147.308691-109.458541 175.952048 91.044955zM0 274.157842l259.836164 115.596404 279.272727 546.26973zM841.91009 388.731269l243.468531-125.826174-512.511489 670.04995zM836.795205 321.214785l-68.539461-141.170829 156.515485-86.953047 135.032967 113.55045zM368.271728 124.803197l-59.332667-15.344655-111.504496-62.401598 130.941059-47.056943 427.604396 0 129.918082 54.217782-124.803197 60.355644-41.942058 10.22977-350.881119 0z" p-id="8174"></path></svg>
