<svg xmlns="http://www.w3.org/2000/svg" width="512" height="512" viewBox="0 0 1024 1024"><path fill="#000" stroke="#000" stroke-width="4" d="M809.6 124.8c-164.352-164.352-430.848-164.352-595.2 0C77.12 262.08 54.528 470.72 146.624 631.488c18.112 31.68 40.704 61.44 67.776 88.512L512 1017.6 809.6 720c27.072-27.072 49.664-56.832 67.776-88.512C969.472 470.72 946.88 262.08 809.6 124.8zM709.568 619.968c-109.12 109.12-286.016 109.12-395.136 0a278.304 278.304 0 0 1-62.08-94.208c-40-100.48-19.264-219.584 62.08-300.928 109.12-109.12 286.016-109.12 395.136 0 81.344 81.344 102.08 200.448 62.08 300.928a278.304 278.304 0 0 1-62.08 94.208z"/></svg>