<svg xmlns="http://www.w3.org/2000/svg" width="512" height="512" viewBox="0 0 1024 1024"><path fill="#000" stroke="#000" stroke-width="4" d="M511.966 3.413c-221.921 0-402.415 182.361-402.415 406.573 0 224.215 315.133 567.992 315.133 567.992 47.342 56.808 127.225 56.808 174.632 0 0 0 315.133-343.79 315.133-568.006C914.452 185.76 733.894 3.413 511.966 3.413zm0 581.451c-102.08 0-186.42-83.729-186.42-188.344 0-104.608 82.856-188.327 186.42-188.327 103.557 0 186.368 85.2 186.368 188.34 0 103.145-82.797 188.345-186.368 188.345v-.014z"/></svg>