<svg xmlns="http://www.w3.org/2000/svg" width="512" height="512" viewBox="0 0 1024 1024"><path fill="#000" stroke="#000" stroke-width="4" d="M952 494.016 568 75.008q-15.008-16.992-35.488-8.992T512 96.032v224.992q-56 4-107.008 20t-96 43.488-84 67.488-72 91.008q-19.008 30.016-35.008 64t-24.992 58.496-16.512 48.992T67.488 748t-2.496 14.016Q60 785.024 80 796.032t36.992-4q4.992-4.992 19.008-15.488t52.512-33.504 82.016-42.496 108.992-36.512 132.512-20v284q0 22.016 20 30.016 6.016 2.016 12 2.016 14.016 0 23.008-10.016l384-412.992q8.992-8.992 8.992-21.504t-8-21.504z"/></svg>