<svg xmlns="http://www.w3.org/2000/svg" width="512" height="512" viewBox="0 0 1024 1024"><path fill="#000" stroke="#000" stroke-width="4" d="M972.8 68.288a56.9 56.9 0 0 0-49.472-11.392L540.416 170.688 157.568 56.896a56.9 56.9 0 0 0-49.472 11.392 56.9 56.9 0 0 0-22.784 45.44v682.688a56.896 56.896 0 0 0 41.6 56.96l398.144 113.728a52.93 52.93 0 0 0 30.72 0l398.272-113.792a56.896 56.896 0 0 0 41.536-56.896V113.792A56.9 56.9 0 0 0 972.8 68.288zM199.104 189.44l284.48 80.768V834.56L199.04 753.792V189.44zm682.688 564.352-284.48 80.768V270.208l284.48-80.768z"/></svg>