<svg xmlns="http://www.w3.org/2000/svg" width="512" height="512" viewBox="0 0 1024 1024"><path fill="#000" stroke="#000" stroke-width="4" d="M258.272 446.544 111.744 192.736C205.568 75.28 349.984 0 512 0c187.44 0 351.312 100.736 440.528 251.008H534.752A261.197 261.197 0 0 0 511.984 250c-121.872 0-224.576 83.648-253.728 196.544zm437.04-121.536h293.456C1011.504 382.944 1024 446.016 1024 512.016c0 280.832-226.096 508.8-506.192 511.92L727.2 661.264C756.688 618.88 774 567.44 774 512.016c0-73.168-30.16-139.424-78.688-187.008zM326 512c0-102.56 83.44-186 186-186s186 83.44 186 186-83.44 186-186 186-186-83.44-186-186zm256.176 252.448L435.6 1018.32C189.072 981.44 0 768.8 0 512c0-91.216 23.888-176.848 65.696-251.024L274.72 623.024C316.592 712.128 407.2 774 512 774c24.304 0 47.84-3.344 70.176-9.552z"/></svg>