<svg xmlns="http://www.w3.org/2000/svg" width="512" height="512" viewBox="0 0 1024 1024"><path fill="#000" stroke="#000" stroke-width="4" d="M933.779 610.253c-53.727-93.053-21.408-212.313 72.158-266.488L905.3 169.467c-28.735 16.863-62.174 26.527-97.853 26.527-107.549 0-194.714-87.741-194.714-195.994l-201.21.032c.256 33.407-8.064 67.294-25.951 98.237-53.726 93.053-173.147 124.7-266.84 70.75L18.063 343.317c28.96 16.48 54.047 40.575 71.87 71.486 53.63 92.893 21.504 211.897-71.71 266.2L118.86 855.3c28.64-16.703 61.918-26.239 97.405-26.239 107.197 0 194.138 87.197 194.682 194.938H612.19c-.096-33.087 8.288-66.558 25.951-97.213 53.63-92.893 172.763-124.604 266.392-71.006l100.637-174.298c-28.736-16.448-53.663-40.479-71.39-71.23zM512 719.338c-114.492 0-207.322-92.83-207.322-207.322S397.508 304.694 512 304.694s207.322 92.83 207.322 207.322S626.492 719.338 512 719.338z"/></svg>