<svg xmlns="http://www.w3.org/2000/svg" width="512" height="512" viewBox="0 0 1024 1024"><path fill="#000" stroke="#000" stroke-width="4" d="M512 192C288.672 192 95.104 322.048 0 512c95.104 189.952 288.672 320 512 320s416.864-130.048 512-320c-95.104-189.952-288.672-320-512-320zm252.448 169.696A486.8 486.8 0 0 1 913.888 512a487.1 487.1 0 0 1-149.44 150.304C688.864 710.528 601.568 736 512 736s-176.864-25.472-252.448-73.696A486.8 486.8 0 0 1 110.112 512a487.14 487.14 0 0 1 161.312-157.6 256 256 0 1 0 481.152 0c3.968 2.368 7.936 4.8 11.872 7.296zM512 416a96 96 0 1 1-192 0 96 96 0 0 1 192 0z"/></svg>