<svg xmlns="http://www.w3.org/2000/svg" width="512" height="512" viewBox="0 0 1024 1024"><path fill="#000" stroke="#000" stroke-width="4" d="M1018.514 491.886C853.943 256 678.4 138.97 495.543 148.114 204.8 159.086 14.629 480.914 5.486 495.543c-7.315 10.971-7.315 25.6 0 36.571 7.314 12.8 199.314 334.629 490.057 347.429H512c175.543 0 345.6-115.2 506.514-345.6 7.315-12.8 7.315-31.086 0-42.057zM512 676.57c-91.429 0-164.571-73.142-164.571-164.571S420.57 347.429 512 347.429 676.571 420.57 676.571 512 603.43 676.571 512 676.571z"/></svg>