<svg xmlns="http://www.w3.org/2000/svg" width="512" height="512" viewBox="0 0 1024 1024"><path fill="#000" stroke="#000" stroke-width="4" d="M998.569 26.237c-39.868-39.995-109.94-30.62-150.031 9.567l-204.041 203.56L266.044 97.942c-36.252-9.375-72.76-21.502-117.715 23.581-22.941 22.974-70.616 70.776 0 141.52l259.49 212.456L238.976 643.99l-157.55-39.388c-23.357-6.015-39.1-1.312-51.098 11.935-6.047 7.55-49.914 40.06-19.326 70.712l183.18 142.512 142.511 183.179c22.141 22.205 42.715 8.35 70.84-18.366 17.822-17.854 13.982-27.037 8.607-53.05l-35.58-156.462 167.693-168.27 212.136 259.555c70.584 70.744 118.29 22.91 141.232 0 44.987-45.115 32.892-81.654 23.517-117.97l-140.24-379.093 203.209-203.913c40.091-40.155 50.362-109.172 10.463-149.135"/></svg>