<svg xmlns="http://www.w3.org/2000/svg" width="512" height="512" viewBox="0 0 1024 1024"><path fill="#000" stroke="#000" stroke-width="4" d="M786.842 392.765c-59.024 0-112.087 24.597-149.853 64.697-15.994 16.978-43.765 37.11-73.81 54.804 14.111-53.862 58.676-121.692 89.621-151.45 39.65-38.174 63.98-91.832 63.98-151.49C716.78 94.433 625.295 1.23 512 0 398.684 1.229 307.2 94.433 307.2 209.326c0 59.679 24.35 113.336 63.98 151.49 30.945 29.758 75.51 97.588 89.62 151.45-30.044-17.694-57.815-37.826-73.81-54.804-37.765-40.1-90.829-64.697-149.852-64.697-114.38 0-207.073 93.655-207.073 209.327 0 115.63 92.692 209.346 207.073 209.346 59.044 0 112.087-25.354 149.852-65.454 16.814-17.879 46.449-40.14 78.295-58.634-3.01 147.702-73.523 256.164-145.326 298.905V1024h384.02v-37.745c-71.782-42.741-142.315-151.224-145.326-298.905 31.847 18.493 61.481 40.775 78.295 58.634 37.766 40.1 90.809 65.454 149.853 65.454 114.38 0 207.073-93.696 207.073-209.346 0-115.672-92.693-209.327-207.073-209.327z"/></svg>