<svg xmlns="http://www.w3.org/2000/svg" width="512" height="512" viewBox="0 0 1024 1024"><path fill="#000" stroke="#000" stroke-width="4" d="M948.48 831.488 814.016 551.744l-.064-.064-19.392-40.32-83.136-172.864V128H729.6c17.664 0 32-14.336 32-32s-14.336-32-32-32h-448c-17.664 0-32 14.336-32 32s14.336 32 32 32h24.576v210.496l-95.36 198.272-6.4 13.248c-.064.128-.128.32-.192.448L69.12 831.488c-17.664 36.736-15.232 79.296 6.464 113.856 21.696 34.496 59.008 55.104 99.776 55.104h666.88c40.768 0 78.08-20.608 99.776-55.104 21.696-34.56 24.128-77.12 6.464-113.856zM588.352 649.28c-49.216 22.4-169.152-28.48-227.84-83.968a207.84 207.84 0 0 1-10.368-10.752 67.327 67.327 0 0 0-3.648-3.776c-1.024-1.088-2.112-2.048-3.264-3.072a71.902 71.902 0 0 0-3.392-2.816c-.256-.192-.448-.384-.704-.576-1.152-.896-2.24-1.728-3.392-2.496-1.344-.96-2.688-1.792-4.032-2.624a53.481 53.481 0 0 0-3.648-2.112c-5.824-3.264-12.16-5.76-18.88-7.616-1.536-.448-3.136-.896-4.8-1.216-1.6-.384-3.264-.704-4.992-1.024a.192.192 0 0 0-.256 0 53.207 53.207 0 0 0-4.608-.768c-.32-.064-.64-.064-.96-.128-1.408-.192-2.88-.32-4.416-.448-.192-.064-.448-.064-.704-.064-.448-.064-.832-.128-1.28-.128L367.04 359.68c2.048-4.352 3.136-9.088 3.136-13.888v-213.44h277.248v213.44c0 4.8 1.088 9.536 3.136 13.888l95.232 197.952C701.12 593.6 628.416 631.04 588.352 649.28z"/></svg>