<svg xmlns="http://www.w3.org/2000/svg" width="512" height="512" viewBox="0 0 1024 1024"><path fill="#000" stroke="#000" stroke-width="4" d="M768 585.152q76.01 0 129.43 53.419T950.847 768t-53.419 129.43T768 950.847t-129.43-53.419T585.153 768q0-6.848 1.152-19.435L380.587 645.717Q328.02 694.87 256.02 694.87q-76.01 0-129.429-53.418T73.173 512.02t53.419-129.429 129.43-53.419q72 0 124.565 49.152l205.717-102.848q-1.152-12.565-1.152-19.434 0-76.011 53.419-129.43T768 73.195t129.43 53.418 53.418 129.43-53.419 129.429T768 438.891q-72 0-124.565-49.152L437.717 492.587q1.152 12.565 1.152 19.434t-1.152 19.435l205.718 102.848Q696 585.152 768 585.152z"/></svg>