<svg xmlns="http://www.w3.org/2000/svg" width="512" height="512" viewBox="0 0 1024 1024"><path fill="#000" stroke="#000" stroke-width="4" d="M704 394.272 339.552 29.792C393.44 10.528 451.488 0 512 0c67.904 0 132.704 13.248 192 37.248zM768 704V68.512C921.024 157.056 1024 322.496 1024 512c0 67.904-13.248 132.704-37.248 192zm-448 64h635.488C866.944 921.024 701.504 1024 512 1024c-67.904 0-132.704-13.248-192-37.248zm106.272-544L14.976 635.296C5.216 595.808 0 554.496 0 512 0 318.624 107.232 150.304 265.44 63.2zM256 501.728v453.76C161.408 900.768 85.952 816.64 42.112 715.616z"/></svg>