<svg xmlns="http://www.w3.org/2000/svg" width="512" height="512" viewBox="0 0 1024 1024"><path fill="#000" stroke="#000" stroke-width="4" d="M426.6 64.8c34.8 5.8 58.4 38.8 52.6 73.6L459.6 256h190.2l23-138.6c5.8-34.8 38.8-58.4 73.6-52.6s58.4 38.8 52.6 73.6L779.6 256H896c35.4 0 64 28.6 64 64s-28.6 64-64 64H758.2l-42.6 256H832c35.4 0 64 28.6 64 64s-28.6 64-64 64H694.2l-23 138.6c-5.8 34.8-38.8 58.4-73.6 52.6s-58.4-38.8-52.6-73.6l19.6-117.4H374.2l-23 138.6c-5.8 34.8-38.8 58.4-73.6 52.6s-58.4-38.8-52.6-73.6L244.4 768H128c-35.4 0-64-28.6-64-64s28.6-64 64-64h137.8l42.6-256H192c-35.4 0-64-28.6-64-64s28.6-64 64-64h137.8l23-138.6c5.8-34.8 38.8-58.4 73.6-52.6zM438.2 384l-42.6 256h190.2l42.6-256z"/></svg>