<svg xmlns="http://www.w3.org/2000/svg" width="512" height="512" viewBox="0 0 1024 1024"><path fill="#000" stroke="#000" stroke-width="4" d="M224 512a4.5 4.5 0 1 0 576 0 4.5 4.5 0 1 0-576 0ZM443.264 0h137.344v188.288H443.264zm.064 828.288h137.344v188.288H443.328zM832 443.264h188.288v137.344H832zm-828.288.064H192v137.408H3.712zM108.85 170.31l97.188-97.133 133.1 133.176-97.188 97.134-133.1-133.176Zm607.96 611.56 97.188-97.134L947.1 817.912l-97.188 97.134zM188.225 931.148l-97.134-97.19 133.176-133.1 97.134 97.189zm611.61-607.957-97.134-97.188L835.832 92.947l97.134 97.189z"/></svg>