<svg xmlns="http://www.w3.org/2000/svg" width="512" height="512" viewBox="0 0 1024 1024"><path fill="#000" stroke="#000" stroke-width="4" d="M932.541 841.083q0 14.847-10.824 25.744t-25.744 10.825H632.019q.585 9.727 3.437 50.026t2.853 62.02q0 14.262-10.313 24.282T603.422 1024H420.578q-14.262 0-24.574-10.02t-10.313-24.282q0-21.721 2.853-62.02t3.437-50.026H128.027q-14.847 0-25.744-10.825t-10.824-25.744 10.824-25.745l229.725-230.237H201.165q-14.847 0-25.744-10.824t-10.825-25.745 10.825-25.744L405.146 292.55H292.587q-14.847 0-25.744-10.825t-10.825-25.744 10.825-25.745L486.256 10.824Q497.08 0 512 0t25.744 10.824l219.413 219.413q10.825 10.825 10.825 25.745t-10.825 25.744-25.744 10.825H618.854L848.58 522.788q10.825 10.824 10.825 25.744t-10.825 25.745-25.744 10.824H691.992l229.725 230.237q10.824 10.825 10.824 25.745z"/></svg>