<svg xmlns="http://www.w3.org/2000/svg" width="512" height="512" viewBox="0 0 1024 1024"><path fill="#000" stroke="#000" stroke-width="4" d="m1001.585 6.784-272.81 26.283c-17.323 1.664-36.01 16.341-41.728 32.768l-174.592 501.29L337.009 65.792c-5.717-16.384-24.448-31.061-41.728-32.725L22.471 6.784C5.19 5.12-4.068 17.024 1.777 33.408l343.211 954.325c5.888 16.342 24.79 29.654 42.155 29.654H654.32c3.115 0 5.718-.854 7.638-2.347a23.68 23.68 0 0 0 11.733-12.459l1.664-4.608 346.88-964.565c5.888-16.384-3.37-28.288-20.65-26.624z"/></svg>