<svg xmlns="http://www.w3.org/2000/svg" width="512" height="512" viewBox="0 0 1024 1024"><path fill="#000" stroke="#000" stroke-width="4" d="M64 63.988v27.194c0 34.194 3.4 67.987 9.998 100.78H779.46c6.399-13.797 14.997-26.594 25.995-37.592l77.185-77.185c8.398-8.398 13.198-19.996 13.198-31.994C895.838 20.196 875.64 0 850.646 0H127.988C92.594 0 64 28.594 64 63.988zM768.262 255.95H91.195c24.395 71.786 64.587 137.373 117.577 191.963h679.067l-94.381-125.776c-14.598-19.396-23.196-42.392-25.196-66.187zM316.351 532.296l232.754 136.973c16.397 9.598 31.594 21.396 44.991 34.594h359.73c4-19.597 5.999-39.793 5.999-60.189 0-45.99-10.598-90.982-30.594-131.774H284.357c10.398 7.199 20.996 13.997 31.994 20.396zM639.888 767.85c20.595 42.792 27.594 90.982 19.796 137.973l-11.798 71.386c-4 24.395 14.797 46.791 39.592 46.791 10.598 0 20.796-4.2 28.395-11.798l156.37-156.37c25.594-25.594 46.19-55.388 60.787-87.782H639.888z"/></svg>